<?xml version="1.0" standalone="no"?>
<!DOCTYPE svg PUBLIC "-//W3C//DTD SVG 20010904//EN"
 "http://www.w3.org/TR/2001/REC-SVG-20010904/DTD/svg10.dtd">
<svg version="1.0" xmlns="http://www.w3.org/2000/svg"
 width="512.000000pt" height="512.000000pt" viewBox="0 0 512.000000 512.000000"
 preserveAspectRatio="xMidYMid meet">
<metadata>
Created by potrace 1.11, written by Peter Selinger 2001-2013
</metadata>
<g transform="translate(0.000000,512.000000) scale(0.100000,-0.100000)"
fill="#000000" stroke="none">
<path d="M2453 4560 c-155 -32 -307 -178 -348 -335 -57 -219 44 -449 240 -545
33 -16 67 -31 77 -34 14 -4 16 -24 17 -165 l1 -161 -473 -1 c-259 0 -490 -2
-511 -5 -123 -12 -281 -80 -383 -164 -166 -135 -266 -334 -277 -549 -3 -46 -6
-84 -8 -85 -2 0 -34 -12 -73 -24 -158 -52 -293 -169 -364 -314 -52 -107 -71
-181 -72 -288 -1 -183 76 -353 218 -480 60 -53 192 -124 253 -136 41 -8 50
-18 50 -58 0 -80 73 -272 132 -351 48 -64 166 -173 223 -206 77 -45 184 -86
260 -99 38 -7 446 -10 1155 -10 1150 0 1138 0 1260 43 170 61 337 210 414 371
48 102 57 130 72 222 3 21 8 46 9 54 2 8 4 18 4 21 1 4 18 10 39 14 48 8 133
47 197 90 226 151 330 449 248 710 -64 203 -238 374 -435 427 -27 6 -48 15
-48 18 -1 3 -3 37 -5 75 -8 133 -42 249 -107 359 -114 192 -325 330 -553 360
-22 3 -252 5 -512 6 l-472 0 0 158 0 157 77 37 c138 65 236 188 268 339 12 56
4 171 -16 231 -51 153 -167 265 -322 311 -51 16 -174 19 -235 7z m197 -251
c60 -27 88 -54 116 -114 43 -91 27 -182 -46 -256 -142 -147 -390 -43 -390 164
0 159 175 272 320 206z m1085 -1258 c177 -64 312 -223 341 -399 13 -72 7
-1414 -5 -1462 -24 -93 -88 -207 -142 -256 -52 -46 -131 -95 -191 -116 l-63
-23 -1075 -3 c-756 -2 -1094 0 -1140 8 -222 38 -392 217 -417 437 -10 86 -9
1354 1 1408 25 138 93 251 201 330 64 47 100 65 176 84 66 17 139 18 1162 16
l1092 -1 60 -23z m-2941 -1149 c-1 -196 -2 -365 -3 -375 -1 -16 -5 -15 -48 7
-81 40 -139 100 -180 182 -31 64 -37 86 -39 153 -4 123 31 215 115 299 44 44
120 92 146 92 7 0 10 -125 9 -358z m3614 324 c134 -86 207 -237 188 -388 -15
-119 -106 -247 -215 -302 -28 -15 -51 -23 -52 -19 0 5 -2 174 -2 376 l-2 368
23 -6 c13 -3 40 -16 60 -29z"/>
<path d="M1600 2546 c-248 -51 -363 -353 -211 -555 136 -181 386 -199 543 -39
135 138 133 359 -4 498 -85 85 -207 120 -328 96z m151 -264 c24 -21 32 -39 36
-74 5 -42 2 -49 -30 -84 -31 -34 -40 -38 -81 -38 -59 1 -101 38 -111 94 -18
106 106 174 186 102z"/>
<path d="M3374 2549 c-160 -29 -285 -182 -285 -346 -1 -72 4 -90 35 -158 72
-158 258 -238 428 -185 257 81 332 411 135 597 -82 78 -200 113 -313 92z m145
-269 c75 -69 29 -190 -72 -193 -137 -4 -160 194 -26 222 45 10 64 4 98 -29z"/>
<path d="M2188 1454 c-89 -30 -106 -152 -30 -209 26 -19 44 -20 399 -22 l372
-1 36 31 c30 26 38 41 41 77 6 54 -21 104 -64 122 -36 15 -709 17 -754 2z"/>
</g>
</svg>
